<svg xmlns="http://www.w3.org/2000/svg"  viewBox="0 0 64 64" width="64px" height="64px"><linearGradient id="t5e6cys31hWFAn3m5Yb83a" x1="21" x2="21" y1="25" y2="33" gradientUnits="userSpaceOnUse" spreadMethod="reflect"><stop offset="0" stop-color="#6dc7ff"/><stop offset="1" stop-color="#e6abff"/></linearGradient><path fill="url(#t5e6cys31hWFAn3m5Yb83a)" d="M21 25A4 4 0 1 0 21 33A4 4 0 1 0 21 25Z"/><linearGradient id="t5e6cys31hWFAn3m5Yb83b" x1="43" x2="43" y1="25" y2="33" gradientUnits="userSpaceOnUse" spreadMethod="reflect"><stop offset="0" stop-color="#6dc7ff"/><stop offset="1" stop-color="#e6abff"/></linearGradient><path fill="url(#t5e6cys31hWFAn3m5Yb83b)" d="M43 25A4 4 0 1 0 43 33A4 4 0 1 0 43 25Z"/><linearGradient id="t5e6cys31hWFAn3m5Yb83c" x1="44.275" x2="44.275" y1="33" y2="39" gradientUnits="userSpaceOnUse" spreadMethod="reflect"><stop offset="0" stop-color="#6dc7ff"/><stop offset="1" stop-color="#e6abff"/></linearGradient><path fill="url(#t5e6cys31hWFAn3m5Yb83c)" d="M49,37.1V39h-8v-2.4c0-0.09-0.01-0.19-0.02-0.29c-0.01-0.06-0.02-0.12-0.03-0.18 c-0.01-0.07-0.03-0.15-0.06-0.23c-0.04-0.16-0.1-0.32-0.17-0.49c-0.24-0.54-0.62-1.12-1.17-1.68C40.58,33.25,41.75,33,43,33 C47.24,33,49,35.67,49,37.1z"/><linearGradient id="t5e6cys31hWFAn3m5Yb83d" x1="19.725" x2="19.725" y1="33" y2="39" gradientUnits="userSpaceOnUse" spreadMethod="reflect"><stop offset="0" stop-color="#6dc7ff"/><stop offset="1" stop-color="#e6abff"/></linearGradient><path fill="url(#t5e6cys31hWFAn3m5Yb83d)" d="M24.45,33.73c-0.55,0.56-0.93,1.14-1.17,1.68c-0.07,0.17-0.13,0.33-0.17,0.49 c-0.03,0.08-0.05,0.16-0.06,0.23c-0.01,0.06-0.02,0.12-0.03,0.18c-0.01,0.1-0.02,0.2-0.02,0.29V39h-8v-1.9c0-1.43,1.76-4.1,6-4.1 C22.25,33,23.42,33.25,24.45,33.73z"/><linearGradient id="t5e6cys31hWFAn3m5Yb83e" x1="32" x2="32" y1="11" y2="61.883" gradientUnits="userSpaceOnUse" spreadMethod="reflect"><stop offset="0" stop-color="#1a6dff"/><stop offset="1" stop-color="#c822ff"/></linearGradient><path fill="url(#t5e6cys31hWFAn3m5Yb83e)" d="M32,29c-2.757,0-5-2.243-5-5s2.243-5,5-5s5,2.243,5,5S34.757,29,32,29z M32,21 c-1.654,0-3,1.346-3,3s1.346,3,3,3s3-1.346,3-3S33.654,21,32,21z"/><linearGradient id="t5e6cys31hWFAn3m5Yb83f" x1="32" x2="32" y1="11" y2="61.883" gradientUnits="userSpaceOnUse" spreadMethod="reflect"><stop offset="0" stop-color="#1a6dff"/><stop offset="1" stop-color="#c822ff"/></linearGradient><path fill="url(#t5e6cys31hWFAn3m5Yb83f)" d="M41,39H23v-2.4c0-1.892,2.718-5.6,9-5.6s9,3.708,9,5.6V39z M25,37h14v-0.4 c-0.003-0.428-1.496-3.6-7-3.6s-6.997,3.172-7,3.6V37z"/><linearGradient id="t5e6cys31hWFAn3m5Yb83g" x1="32" x2="32" y1="11" y2="61.883" gradientUnits="userSpaceOnUse" spreadMethod="reflect"><stop offset="0" stop-color="#1a6dff"/><stop offset="1" stop-color="#c822ff"/></linearGradient><path fill="url(#t5e6cys31hWFAn3m5Yb83g)" d="M55,62.174L39.63,49H9V11h46V62.174z M11,47h29.37L53,57.826V13H11V47z"/></svg>